<?xml version="1.0" encoding="utf-8"?>
<!-- Generator: Adobe Illustrator 25.0.0, SVG Export Plug-In . SVG Version: 6.00 Build 0)  -->
<svg version="1.1" id="katman_1" xmlns="http://www.w3.org/2000/svg" xmlns:xlink="http://www.w3.org/1999/xlink" x="0px" y="0px"
	 viewBox="0 0 242 274" style="enable-background:new 0 0 242 274;" xml:space="preserve">
<style type="text/css">
	.st0{fill:#FFFFFF;}
</style>
<g id="surface1">
	<path class="st0" d="M185.1,83.5c-2.5-11.9-40.2-24-43.6-18.4c1.2,3.4,18.8,4.2,35.3,18.1c-15.6-10.1-39.8-13-51.6-13.8l-3.9-0.2
		h-0.1l0,0l-3.8,0.2c-11.8,0.8-36,3.7-51.6,13.8C82.2,69.2,99.9,68.4,101,65c-3.4-5.6-41.1,6.5-43.6,18.4c0,0-19.7,38.3-16.7,75
		c11.7,16.6,36.3,21.7,42.9,20c6.7-8.3,7.6-10.7,7.6-10.7S72.6,160,68,151.6c10,5.2,19,14.4,49,15.4h8c30-1,39.3-10.2,49.2-15.4
		c-4.6,8.5-23,16.2-23,16.2s1,2.3,7.7,10.6c6.6,1.7,31.3-3.4,42.9-20C204.8,121.8,185.1,83.5,185.1,83.5 M242,274l-64.5-56.7
		L184,242H33c-33,0-33-30-33-30V30C0,30,0,5.3,24.7,0.7L25,0h192l-0.6,0.6C242,4.7,242,30,242,30"/>
	<path class="st0" d="M81.9,130c0-9.1,5.3-15.4,14.4-15.4s13.4,10.5,13.4,15.4c0,4-4.3,15.4-13.4,15.4S81.9,139.1,81.9,130"/>
	<path class="st0" d="M159.8,130c0-9.1-5.3-15.4-14.4-15.4S132,125.1,132,130c0,4,4.3,15.4,13.4,15.4S159.8,139.1,159.8,130"/>
</g>
</svg>
